<svg xmlns:rdf="http://www.w3.org/1999/02/22-rdf-syntax-ns#" xmlns="http://www.w3.org/2000/svg" height="42.334mm" width="84.667mm" version="1.1" xmlns:cc="http://creativecommons.org/ns#" xmlns:dc="http://purl.org/dc/elements/1.1/" viewBox="0 0 300.00001 150.00071">
<defs>
<clipPath id="a" clipPathUnits="userSpaceOnUse">
<path d="m467.72 756.85h85.039v42.52h-85.039v-42.52z"/>
</clipPath>
</defs>
<g transform="translate(-386.85 -623.22)">
<path style="fill:#ffffff" d="m386.85 773.22h300v-150h-300v150z"/>
<path style="fill:#ffffff" d="m686.85 773.22h-300v-150h300v150z"/>
<path style="fill:#e30016" d="m386.85 641.07h300v-17.851h-300v17.851z"/>
<path style="fill:#e30016" d="m386.85 773.22h300v-17.851h-300v17.851z"/>
<g transform="matrix(3.5278 0 0 -3.5278 -1263.1 3443.2)">
<g clip-path="url(#a)">
<g transform="translate(481.25 776.41)">
<path style="fill:#e30016" d="m0 0-4.483 1.318c-2.698 0.808-4.004 1.574-4.004 3.7 0 2.253 2.089 4.422 7.181 4.422 6.224 0 7.268-3.147 7.486-4.295h-4.657c0 0.978-1.088 1.786-2.829 1.786-1.958 0-2.785-0.765-2.785-1.701 0-0.893 0.609-1.19 1.741-1.531l4.526-1.275c2.829-0.808 4.004-1.914 4.004-4.039 0-1.478-0.634-2.748-2.239-3.544h-0.004c-1.121-0.556-2.714-0.879-4.894-0.879-2.338 0-3.989 0.312-5.142 0.878v0.001c-1.51 0.742-2.165 1.922-2.388 3.416h4.614c0-0.978 1.088-1.786 2.741-1.786 2.133 0 2.786 0.893 2.786 1.956 0 0.638-0.305 1.19-1.654 1.573m6.789 9.27h11.533v-2.807h-3.743v-11.622-0.709h-4.134v0.709 11.622h-3.656v2.807zm13.144 0h6.397v-9.95c0-1.105 0-1.616 0.348-1.998 0.566-0.596 1.219-0.638 4.178-0.638 2.96 0 3.612 0.042 4.178 0.638 0.349 0.382 0.349 0.893 0.349 1.998v9.95h6.397v-10.333c0-2.764-0.217-3.401-1.088-3.997-0.049-0.034-0.097-0.067-0.145-0.099-1.317-0.879-2.385-0.879-9.691-0.879s-8.373 0-9.69 0.879c-0.048 0.032-0.096 0.065-0.145 0.099-0.871 0.596-1.088 1.233-1.088 3.997v10.333zm24.937-14.429v14.429h4.134v-12.331h4.962v-2.098-0.709h-9.096v0.709zm10.14 0v1.8l6.224 9.822h-5.876v2.807h10.924v-2.424l-6.267-9.907h6.485v-2.098-0.709h-11.49v0.709zm-68.545 0v-6.704h85.039v6.704 20.424h-85.039v-20.424z"/>
</g>
</g>
</g>
</g>
</svg>
